<svg width="48" height="48" viewBox="0 0 100 100"><rect width="100" height="100" rx="24" fill="#2D7A5F"/><circle cx="50" cy="48" r="24" fill="white" opacity="0.95"/><circle cx="50" cy="48" r="20" fill="none" stroke="#2D7A5F" stroke-width="2.5"/><text x="50" y="54" font-family="Georgia, serif" font-size="22" fill="#2D7A5F" text-anchor="middle" font-weight="bold">€</text><path d="M72 26 C78 20 84 22 82 28 C80 34 72 36 68 32 C64 28 66 22 72 26Z" fill="#C17A3A"/></svg>
      <svg width="32" height="32" viewBox="0 0 100 100"><rect width="100" height="100" rx="24" fill="#2D7A5F"/><circle cx="50" cy="48" r="24" fill="white" opacity="0.95"/><circle cx="50" cy="48" r="20" fill="none" stroke="#2D7A5F" stroke-width="2.5"/><text x="50" y="54" font-family="Georgia, serif" font-size="22" fill="#2D7A5F" text-anchor="middle" font-weight="bold">€</text><path d="M72 26 C78 20 84 22 82 28 C80 34 72 36 68 32 C64 28 66 22 72 26Z" fill="#C17A3A"/></svg>
      <svg width="20" height="20" viewBox="0 0 100 100"><rect width="100" height="100" rx="24" fill="#2D7A5F"/><circle cx="50" cy="48" r="24" fill="white" opacity="0.95"/><circle cx="50" cy="48" r="20" fill="none" stroke="#2D7A5F" stroke-width="2.5"/><text x="50" y="54" font-family="Georgia, serif" font-size="22" fill="#2D7A5F" text-anchor="middle" font-weight="bold">€</text><path d="M72 26 C78 20 84 22 82 28 C80 34 72 36 68 32 C64 28 66 22 72 26Z" fill="#C17A3A"/></svg>